<svg width="24" height="24" viewBox="0 0 24 24" fill="none" xmlns="http://www.w3.org/2000/svg">
<path d="M17.502 12.033L13.261 9.575L15.399 4.444C15.4736 4.29161 15.5083 4.12278 15.4999 3.95331C15.4915 3.78384 15.4402 3.61927 15.3509 3.47501C15.2616 3.33074 15.1372 3.21149 14.9892 3.12842C14.8413 3.04534 14.6746 3.00116 14.505 3C14.2795 2.99947 14.0604 3.07485 13.883 3.214L13.813 3.274L6.31297 10.374C6.20023 10.4811 6.11395 10.6129 6.06096 10.7591C6.00797 10.9053 5.98973 11.0618 6.00767 11.2162C6.02562 11.3707 6.07927 11.5188 6.16437 11.649C6.24946 11.7791 6.36368 11.8876 6.49797 11.966L10.74 14.426L8.57697 19.616C8.48776 19.8277 8.47423 20.0637 8.53867 20.2842C8.60311 20.5047 8.74158 20.6963 8.93075 20.8266C9.11993 20.9569 9.34825 21.0181 9.57725 20.9998C9.80625 20.9815 10.0219 20.8848 10.188 20.726L17.688 13.624C17.8005 13.5169 17.8865 13.385 17.9393 13.2389C17.9921 13.0928 18.0102 12.9364 17.9922 12.7821C17.9741 12.6278 17.9204 12.4798 17.8354 12.3498C17.7503 12.2197 17.6362 12.1113 17.502 12.033Z" fill="#35425B"/>
</svg>
